<svg width="112" height="21" viewBox="0 0 112 21" fill="none" xmlns="http://www.w3.org/2000/svg">
<path d="M9.03704 20.2834C3.6827 20.2834 0 15.8115 0 10.6778C0 4.5343 5.35434 0.00305176 11.2772 0.00305176C12.6858 0.00305176 16.0545 0.181247 16.0545 2.19231C16.0036 2.71841 15.766 3.21056 15.3927 3.57544C15.0193 3.9488 14.5187 4.16942 13.9926 4.21185C12.4567 4.21185 10.8784 1.36073 8.68065 1.36073C5.17614 1.36073 3.5045 5.44225 3.5045 8.42065C3.5045 14.0805 7.3654 17.6783 11.7015 17.6783C13.3561 17.6444 14.9514 17.0419 16.2158 15.9727L16.7419 16.6261C15.7915 17.7462 14.612 18.6541 13.2798 19.2821C11.9476 19.91 10.4965 20.2494 9.02855 20.2664" fill="white"/>
<path d="M33.722 2.37838V1.93713L38.9406 0.00244141L39.4243 0.172151L39.0764 3.37966C41.5796 1.5468 43.9895 0.00244141 46.7897 0.00244141C52.0507 0.00244141 52.3137 4.34701 52.3137 6.93508V14.7502C52.3137 18.3481 52.4919 18.7044 55.7334 19.1796V19.8415H45.5084V19.1796C48.7498 18.696 48.8856 18.1699 48.928 14.7502V9.70983C48.928 6.63809 49.0553 2.29352 43.7095 2.29352C42.8779 2.28504 42.0463 2.44626 41.2741 2.76871C40.5019 3.09116 39.8061 3.57483 39.2376 4.1773V14.7587C39.2376 18.3565 39.4158 18.7129 42.6573 19.1881V19.85H32.4407V19.1881C35.6822 18.7044 35.818 18.1783 35.8604 14.7587V6.37504C35.8604 4.53369 35.9028 3.96516 33.7136 2.37838" fill="white"/>
<path d="M66.8306 5.28042L58.4045 5.63681C58.8882 3.44755 60.3816 0.97828 62.8848 0.97828C65.2013 0.97828 66.4402 3.26087 66.8306 5.28042ZM58.1075 8.65764L58.2857 6.46839H71.0054C71.0224 5.59438 70.8527 4.72038 70.5133 3.90577C70.1738 3.09965 69.6732 2.36141 69.0368 1.75894C68.4004 1.15647 67.6452 0.681288 66.8221 0.384296C65.999 0.0873041 65.1165 -0.0399781 64.2425 0.0109348C58.3196 0.0109348 54.3739 4.8816 54.3739 10.5499C54.323 11.7973 54.5181 13.0446 54.9509 14.2156C55.3836 15.3866 56.054 16.4558 56.911 17.3637C57.7681 18.2717 58.8033 19.0014 59.9488 19.5021C61.0944 20.0027 62.3248 20.2658 63.5721 20.2828C65.2438 20.2064 66.8645 19.6973 68.2731 18.7978C69.6902 17.9068 70.8442 16.6595 71.6418 15.1915L70.9884 14.7078C70.4284 15.5648 69.6562 16.2691 68.7568 16.7528C67.8488 17.2365 66.839 17.4825 65.8123 17.4741C64.7092 17.4656 63.6146 17.2195 62.6133 16.7613C61.612 16.3031 60.7125 15.6327 59.9828 14.8011C59.253 13.9696 58.71 12.9937 58.3875 11.933C58.0651 10.8724 57.9632 9.76075 58.099 8.65764" fill="white"/>
<path d="M78.8885 20.2828L72.5753 4.6101C71.7862 2.72632 71.3025 1.23288 68.9351 1.09711V0.443726H78.1927V1.10559C74.9513 1.19893 75.5198 2.59904 76.3089 4.6695L80.5177 15.4206L84.6417 5.67927C83.284 2.16628 83.2416 1.50441 80.6535 1.11408V0.460697H90.0385V1.11408C86.7461 1.24136 87.1873 2.5651 87.7219 4.00763L92.0241 15.4206C93.7805 11.5088 96.8523 4.75435 96.8523 2.69238C96.8523 1.24136 95.4946 1.24136 94.3915 1.11408V0.460697H101.799V1.11408C99.2961 1.29227 98.6427 3.04877 97.7263 5.02589L90.8785 20.2913H90.2676L85.049 6.95209L79.5674 20.2913H78.9055L78.8885 20.2828Z" fill="white"/>
<path d="M109.896 5.54338C109.285 3.52384 108.326 1.06305 105.823 1.06305C105.424 1.05456 105.025 1.13093 104.66 1.28367C104.295 1.43641 103.964 1.66552 103.684 1.95402C103.413 2.24253 103.201 2.59044 103.073 2.9638C102.946 3.33716 102.895 3.73598 102.921 4.13479C102.921 8.65755 112 8.52179 112 14.1816C112 18.0934 108.275 20.2827 104.719 20.2827C102.81 20.3166 100.943 19.7481 99.3736 18.6619L99.0257 13.7913L100.035 13.6131C100.655 16.2945 102.14 19.1456 105.254 19.1456C105.712 19.1541 106.162 19.0777 106.578 18.908C107.002 18.7383 107.384 18.4837 107.698 18.1528C108.012 17.8304 108.258 17.44 108.419 17.0158C108.58 16.5915 108.648 16.1333 108.623 15.6835C108.623 10.6771 99.5433 11.6869 99.5433 5.40762C99.5433 1.98797 102.751 0.00236403 105.865 0.00236403C107.596 -0.0146069 109.293 0.494522 110.736 1.45338L110.863 5.3567L109.904 5.52641L109.896 5.54338Z" fill="white"/>
<path fill-rule="evenodd" clip-rule="evenodd" d="M23.7605 9.33644C25.1691 9.33644 26.3061 8.19939 26.3061 6.7908C26.3061 5.38221 25.1691 4.24515 23.7605 4.24515C22.3519 4.24515 21.2148 5.38221 21.2148 6.7908C21.2148 8.19939 22.3519 9.33644 23.7605 9.33644ZM25.0333 16.1248C28.5463 16.1248 31.3974 13.2737 31.3974 9.76072C31.3974 6.24773 28.5463 3.39661 25.0333 3.39661C21.5203 3.39661 18.6692 6.24773 18.6692 9.76072C18.6692 13.2737 21.5203 16.1248 25.0333 16.1248Z" fill="currentColor"/>
</svg>
