<svg width="194" height="156" viewBox="0 0 194 156" fill="none" xmlns="http://www.w3.org/2000/svg">
<g opacity="0.87">
<rect x="116.046" y="38.9773" width="38.9772" height="38.9772" transform="rotate(-90 116.046 38.9773)" fill="white"/>
<rect x="116.046" y="116.932" width="38.9772" height="38.9772" transform="rotate(-90 116.046 116.932)" fill="#4299F3"/>
<rect x="38.0913" y="77.9544" width="38.9772" height="38.9772" transform="rotate(-90 38.0913 77.9544)" fill="#4299F3"/>
<rect x="77.0685" y="116.932" width="38.9772" height="38.9772" transform="rotate(-90 77.0685 116.932)" fill="#3585D9"/>
<rect x="155.023" y="116.932" width="38.9772" height="38.9772" transform="rotate(-90 155.023 116.932)" fill="#3585D9"/>
<rect x="155.023" y="77.9544" width="38.9772" height="38.9772" transform="rotate(-90 155.023 77.9544)" fill="white"/>
<rect x="155.023" y="155.909" width="38.9772" height="38.9772" transform="rotate(-90 155.023 155.909)" fill="white"/>
<rect x="77.0685" y="77.9544" width="38.9772" height="38.9772" transform="rotate(-90 77.0685 77.9544)" fill="white"/>
<rect x="116.046" y="77.9544" width="38.9772" height="38.9772" transform="rotate(-90 116.046 77.9544)" fill="#72B1FF"/>
<rect x="6.81499e-06" y="38.9773" width="38.9772" height="38.9772" transform="rotate(-90 6.81499e-06 38.9773)" fill="#72B1FF"/>
<rect x="38.0913" y="155.909" width="38.9772" height="38.9772" transform="rotate(-90 38.0913 155.909)" fill="#72B1FF"/>
</g>
</svg>
