<svg width="233" height="118" viewBox="0 0 233 118" fill="none" xmlns="http://www.w3.org/2000/svg">
<g opacity="0.87">
<rect x="87.1006" y="29.2552" width="29.2552" height="29.2552" transform="rotate(-90 87.1006 29.2552)" fill="white"/>
<rect x="174.327" y="58.4721" width="29.2552" height="29.2552" transform="rotate(-90 174.327 58.4721)" fill="white"/>
<rect x="87.1006" y="87.7656" width="29.2552" height="29.2552" transform="rotate(-90 87.1006 87.7656)" fill="#4299F3"/>
<rect x="174.327" y="29.2552" width="29.2552" height="29.2552" transform="rotate(-90 174.327 29.2552)" fill="#4299F3"/>
<rect x="28.5902" y="58.5104" width="29.2552" height="29.2552" transform="rotate(-90 28.5902 58.5104)" fill="#4299F3"/>
<rect x="57.8455" y="87.7656" width="29.2552" height="29.2552" transform="rotate(-90 57.8455 87.7656)" fill="#3585D9"/>
<rect x="116.356" y="87.7656" width="29.2552" height="29.2552" transform="rotate(-90 116.356 87.7656)" fill="#3585D9"/>
<rect x="203.544" y="87.6889" width="29.2552" height="29.2552" transform="rotate(-90 203.544 87.6889)" fill="#3585D9"/>
<rect x="174.327" y="116.906" width="29.2552" height="29.2552" transform="rotate(-90 174.327 116.906)" fill="#3585D9"/>
<rect x="116.356" y="58.5104" width="29.2552" height="29.2552" transform="rotate(-90 116.356 58.5104)" fill="white"/>
<rect x="116.356" y="117.021" width="29.2552" height="29.2552" transform="rotate(-90 116.356 117.021)" fill="white"/>
<rect x="57.8455" y="58.5104" width="29.2552" height="29.2552" transform="rotate(-90 57.8455 58.5104)" fill="white"/>
<rect x="87.1006" y="58.5104" width="29.2552" height="29.2552" transform="rotate(-90 87.1006 58.5104)" fill="#72B1FF"/>
<rect x="5.11514e-06" y="29.2552" width="29.2552" height="29.2552" transform="rotate(-90 5.11514e-06 29.2552)" fill="#72B1FF"/>
<rect x="28.5902" y="117.021" width="29.2552" height="29.2552" transform="rotate(-90 28.5902 117.021)" fill="#72B1FF"/>
<rect x="145.11" y="58.4721" width="29.2552" height="29.2552" transform="rotate(-90 145.11 58.4721)" fill="#72B1FF"/>
</g>
</svg>
