<svg width="146" height="118" viewBox="0 0 146 118" fill="none" xmlns="http://www.w3.org/2000/svg">
<g opacity="0.87">
<rect x="87.1006" y="29.2552" width="29.2552" height="29.2552" transform="rotate(-90 87.1006 29.2552)" fill="white"/>
<rect x="87.1006" y="87.7655" width="29.2552" height="29.2552" transform="rotate(-90 87.1006 87.7655)" fill="#4299F3"/>
<rect x="28.5903" y="58.5104" width="29.2552" height="29.2552" transform="rotate(-90 28.5903 58.5104)" fill="#4299F3"/>
<rect x="57.8453" y="87.7655" width="29.2552" height="29.2552" transform="rotate(-90 57.8453 87.7655)" fill="#3585D9"/>
<rect x="57.4598" y="116.906" width="29.2552" height="29.2552" transform="rotate(-90 57.4598 116.906)" fill="#3585D9"/>
<rect x="116.356" y="87.7655" width="29.2552" height="29.2552" transform="rotate(-90 116.356 87.7655)" fill="#3585D9"/>
<rect x="116.356" y="58.5104" width="29.2552" height="29.2552" transform="rotate(-90 116.356 58.5104)" fill="white"/>
<rect x="116.356" y="117.021" width="29.2552" height="29.2552" transform="rotate(-90 116.356 117.021)" fill="white"/>
<rect x="57.8453" y="58.5104" width="29.2552" height="29.2552" transform="rotate(-90 57.8453 58.5104)" fill="white"/>
<rect x="87.1006" y="58.5104" width="29.2552" height="29.2552" transform="rotate(-90 87.1006 58.5104)" fill="#72B1FF"/>
<rect x="86.6768" y="116.906" width="29.2552" height="29.2552" transform="rotate(-90 86.6768 116.906)" fill="#72B1FF"/>
<rect x="5.11514e-06" y="29.2552" width="29.2552" height="29.2552" transform="rotate(-90 5.11514e-06 29.2552)" fill="#72B1FF"/>
<rect x="28.5903" y="117.021" width="29.2552" height="29.2552" transform="rotate(-90 28.5903 117.021)" fill="#72B1FF"/>
</g>
</svg>
