<svg xmlns="http://www.w3.org/2000/svg" xmlns:xlink="http://www.w3.org/1999/xlink"><defs><linearGradient id="paint0_linear_133_1521" x1="14.7" y1="-10.588" x2="14.7" y2="31.766" gradientUnits="userSpaceOnUse"><stop stop-color="#C25802"/><stop offset="1" stop-color="#FF7300"/></linearGradient></defs><symbol id="arrow-down" viewBox="0 0 24 23"><path d="M22.706 12.375l-11 9.625-11-9.625" fill="transparent" stroke="#fff" stroke-linecap="square"/><path stroke="#fff" d="M11.206 15.125V0"/></symbol><symbol id="arrow-left" viewBox="0 0 23 24"><path d="M10.29 22.706l-9.626-11 9.625-11" fill="transparent" stroke="#fff" stroke-linecap="square"/><path stroke="#fff" d="M7.539 11.206h15.125"/></symbol><symbol id="arrow-right" viewBox="0 0 23 24"><path d="M12.375 22.706l9.625-11-9.625-11" fill="transparent" stroke="#fff" stroke-linecap="square"/><path stroke="#fff" d="M15.125 11.206H0"/></symbol><symbol id="arrow-trends" viewBox="0 0 125 15"><path d="M1 6.364H0v2h1v-2zm123.207 1.707a1 1 0 000-1.414L117.843.293a1 1 0 10-1.414 1.414l5.657 5.657-5.657 5.657a1 1 0 101.414 1.414l6.364-6.364zM1 7.364v1h122.5v-2H1v1z" fill="#fff"/></symbol><symbol id="close" viewBox="0 0 22 22"><path d="M.707.707l20 20m0-20l-20 20" stroke="#FF7300" stroke-linecap="square"/></symbol><symbol id="logo-cnews" viewBox="0 0 112 21"><path d="M9.037 20.283C3.683 20.283 0 15.811 0 10.678 0 4.534 5.354.003 11.277.003c1.409 0 4.778.178 4.778 2.19a2.242 2.242 0 01-2.062 2.019c-1.536 0-3.115-2.851-5.312-2.851-3.505 0-5.176 4.081-5.176 7.06 0 5.66 3.86 9.257 8.197 9.257a7.224 7.224 0 004.514-1.705l.526.653a10.307 10.307 0 01-7.713 3.64M33.722 2.378v-.44L38.941.001l.483.17-.348 3.208C41.58 1.547 43.99.002 46.79.002c5.26 0 5.524 4.345 5.524 6.933v7.815c0 3.598.178 3.954 3.42 4.43v.662H45.507v-.662c3.242-.484 3.378-1.01 3.42-4.43V9.71c0-3.072.127-7.416-5.218-7.416a6.168 6.168 0 00-2.436.475 5.969 5.969 0 00-2.036 1.408V14.76c0 3.598.178 3.954 3.42 4.43v.661H32.44v-.662c3.241-.484 3.377-1.01 3.42-4.43V6.376c0-1.841.042-2.41-2.147-3.997M66.83 5.28l-8.425.357c.483-2.19 1.977-4.659 4.48-4.659 2.316 0 3.555 2.283 3.946 4.302zm-8.722 3.378l.178-2.19h12.72a6.351 6.351 0 00-1.97-4.71A6.393 6.393 0 0066.823.385a6.507 6.507 0 00-2.58-.373c-5.922 0-9.868 4.87-9.868 10.539a9.465 9.465 0 00.577 3.666 9.276 9.276 0 001.96 3.148 9.311 9.311 0 006.661 2.919 9.537 9.537 0 004.701-1.485 9.748 9.748 0 003.369-3.606l-.654-.484a6.148 6.148 0 01-2.231 2.045 6.147 6.147 0 01-2.945.721 7.852 7.852 0 01-5.83-2.673 7.77 7.77 0 01-1.594-2.868 7.918 7.918 0 01-.289-3.275" fill="#fff"/><path d="M78.888 20.283L72.575 4.61c-.789-1.884-1.273-3.377-3.64-3.513V.444h9.258v.662c-3.242.093-2.673 1.493-1.884 3.563l4.209 10.752 4.124-9.742c-1.358-3.513-1.4-4.175-3.989-4.565V.461h9.385v.653c-3.292.127-2.85 1.451-2.316 2.894l4.302 11.413c1.757-3.912 4.828-10.667 4.828-12.729 0-1.45-1.357-1.45-2.46-1.578V.461h7.407v.653c-2.503.178-3.156 1.935-4.073 3.912L90.88 20.29h-.611l-5.22-13.338-5.482 13.34h-.661l-.018-.01z" fill="#fff"/><path d="M109.896 5.543c-.611-2.02-1.57-4.48-4.073-4.48a2.866 2.866 0 00-2.139.891 2.824 2.824 0 00-.611 1.01 3.028 3.028 0 00-.152 1.17c0 4.524 9.079 4.388 9.079 10.048 0 3.911-3.725 6.1-7.281 6.1a9.105 9.105 0 01-5.345-1.62l-.348-4.87 1.009-.179c.62 2.681 2.105 5.533 5.219 5.533.458.008.908-.068 1.324-.238.424-.17.806-.424 1.12-.755a3.33 3.33 0 00.721-1.137 3.26 3.26 0 00.204-1.332c0-5.007-9.08-3.997-9.08-10.276 0-3.42 3.208-5.406 6.322-5.406a8.654 8.654 0 014.871 1.451l.127 3.904-.959.17-.008.016z" fill="#fff"/><path fill-rule="evenodd" clip-rule="evenodd" d="M23.76 9.336a2.542 2.542 0 002.546-2.545 2.542 2.542 0 00-2.546-2.546 2.542 2.542 0 00-2.545 2.546 2.542 2.542 0 002.546 2.545zm1.273 6.789a6.366 6.366 0 006.364-6.364 6.366 6.366 0 00-6.364-6.364A6.366 6.366 0 0018.67 9.76a6.366 6.366 0 006.364 6.364z" fill="currentColor"/></symbol><symbol id="square-1" viewBox="0 0 146 118"><g opacity=".87"><path fill="#fff" d="M87.1 29.255V0h29.255v29.255z"/><path fill="#4299F3" d="M87.101 87.765V58.51h29.255v29.255zM28.59 58.51V29.257h29.255V58.51z"/><path fill="#3585D9" d="M57.846 87.766V58.51H87.1v29.255z"/><path fill="#3585D9" d="M57.46 116.906V87.65h29.255v29.255zm58.896-29.141V58.51h29.255v29.255z"/><path fill="#fff" d="M116.356 58.51V29.255h29.255V58.51zm0 58.511V87.766h29.255v29.255zM57.845 58.51V29.257H87.1V58.51z"/><path fill="#72B1FF" d="M87.1 58.51V29.255h29.255V58.51zm-.423 58.396V87.65h29.255v29.255zM0 29.255V0h29.255v29.255zm28.59 87.766V87.766h29.255v29.255z"/></g></symbol><symbol id="square-2" viewBox="0 0 233 118"><g opacity=".87"><path fill="#fff" d="M87.1 29.255V0h29.255v29.255zm87.227 29.217V29.217h29.255v29.255z"/><path fill="#4299F3" d="M87.101 87.765V58.51h29.255v29.255zm87.226-58.51V0h29.255v29.255zM28.59 58.51V29.257h29.255V58.51z"/><path fill="#3585D9" d="M57.846 87.765V58.51H87.1v29.255zm58.51.001V58.51h29.255v29.255zm87.188-.077V58.434H232.8v29.255z"/><path fill="#3585D9" d="M174.327 116.906V87.651h29.255v29.255z"/><path fill="#fff" d="M116.356 58.51V29.255h29.255V58.51zm0 58.511V87.766h29.255v29.255zM57.845 58.51V29.255H87.1V58.51z"/><path fill="#72B1FF" d="M87.1 58.51V29.255h29.255V58.51zM0 29.255V0h29.255v29.255zm28.59 87.766V87.766h29.255v29.255zm116.52-58.549V29.217h29.255v29.255z"/></g></symbol><symbol id="square-3" viewBox="0 0 194 156"><g opacity=".87"><path fill="#fff" d="M116.046 38.977V0h38.977v38.977z"/><path fill="#4299F3" d="M116.046 116.932V77.955h38.977v38.977zM38.09 77.955V38.978h38.978v38.977z"/><path fill="#3585D9" d="M77.068 116.931V77.956h38.977v38.977zm77.955.001V77.955H194v38.977z"/><path fill="#fff" d="M155.023 77.954V38.977H194v38.977zm0 77.955v-38.977H194v38.977zM77.068 77.954V38.977h38.977v38.977z"/><path fill="#72B1FF" d="M116.046 77.954V38.977h38.977v38.977zM0 38.977V0h38.977v38.977zM38.091 155.91v-38.978h38.977v38.977z"/></g></symbol><symbol id="timeline-arrow" viewBox="0 0 30 27"><path d="M19.015 24.291c-1.918 3.322-6.713 3.322-8.63 0L.674 7.474C-1.243 4.152 1.155 0 4.99 0h19.42c3.836 0 6.233 4.152 4.315 7.474l-9.71 16.817z" fill="url(#paint0_linear_133_1521)"/></symbol></svg>